<svg width="53" height="62" viewBox="0 0 53 62" fill="none" xmlns="http://www.w3.org/2000/svg">
<path d="M16 24.5L26 18L37 24.5L26 31L16 24.5Z" fill="#7EE044"/>
<path d="M15.5 25.5L25.3505 32V43.5L15.5 38.5V25.5Z" fill="#7EE044"/>
<path d="M26.6441 43.5V32L37.5 25.5V38.5L26.6441 43.5Z" fill="#7EE044"/>
<path d="M0 47V15.5L11 8.5L20 14L9.5 20.5L9 51.5L0 47Z" fill="#7EE044"/>
<path d="M26 0L17 5.5L43.5 20.5V34L53 30V15.5L26 0Z" fill="#7EE044"/>
<path d="M53 47V35.5L26 51L15 44.5V55L26 62L53 47Z" fill="#7EE044"/>
</svg>
